<?xml version="1.0" encoding="utf-8"?>
<!-- Generator: Adobe Illustrator 23.0.4, SVG Export Plug-In . SVG Version: 6.00 Build 0)  -->
<svg version="1.1" id="Calque_1" xmlns="http://www.w3.org/2000/svg" xmlns:xlink="http://www.w3.org/1999/xlink" x="0px" y="0px"
	 viewBox="0 0 54.9 16.6" style="enable-background:new 0 0 54.9 16.6;" xml:space="preserve">
<style type="text/css">
	.st0{fill:#292929;}
</style>
<g id="Groupe_200" transform="translate(-52.239 -25.27)">
	<path id="Tracé_66" class="st0" d="M102.5,25.7h1.2l0.9,1.4l0.9-1.4h1.2V30h-1.2v-2.2l-0.9,1.4l-0.9-1.4V30h-1.2V25.7z M99.3,27
		h-1.2v-1.2h3.6V27h-1.2v3h-1.3V27z"/>
	<g id="Groupe_138" transform="translate(52.239 25.27)">
		<path id="Tracé_3" class="st0" d="M3.3,15.9H0.5V0.6h2.8v6.3c0.7-0.9,1.8-1.4,3-1.4c2.9,0.3,5.1,2.9,4.8,5.9
			c-0.3,2.5-2.3,4.5-4.8,4.8c-1.1,0-2.2-0.5-3-1.4L3.3,15.9z M5.6,8c-1.5-0.1-2.9,1-3,2.6s1,2.9,2.6,3c1.5,0.1,2.9-1,3-2.6
			c0-0.1,0-0.1,0-0.2C8.3,9.4,7.3,8.1,5.9,8C5.8,8,5.7,8,5.6,8L5.6,8z"/>
		<path id="Tracé_4" class="st0" d="M13.3,5.7h2.8v1.6c0.4-1.1,1.4-1.8,2.5-1.8c0.3,0,0.6,0,0.9,0.1v2.8c-0.4-0.1-0.8-0.2-1.3-0.2
			c-1.3,0-2.2,1-2.2,2.7v4.9h-2.8L13.3,5.7L13.3,5.7z"/>
		<path id="Tracé_5" class="st0" d="M23,4c-1,0-1.8-0.8-1.7-1.8c0-1,0.8-1.8,1.8-1.7c1,0,1.7,0.8,1.8,1.8C24.8,3.2,24,4,23,4z
			 M21.6,5.7h2.8v10.2h-2.8L21.6,5.7z"/>
		<path id="Tracé_6" class="st0" d="M27.3,0.6h2.8v8.9l3.3-3.8h3.4l-4,4.6l5,5.6h-3.5l-4.2-4.7v4.7h-2.8L27.3,0.6L27.3,0.6z"/>
		<path id="Tracé_7" class="st0" d="M40.3,4c-1,0-1.8-0.8-1.7-1.8c0-1,0.8-1.8,1.8-1.7c1,0,1.7,0.8,1.8,1.8C42.1,3.2,41.3,4,40.3,4
			z M38.9,5.7h2.8v10.2h-2.8V5.7z"/>
	</g>
</g>
</svg>
